<svg preserveAspectRatio="none" width="100%" height="100%" overflow="visible" style="display: block;" viewBox="0 0 24 24" fill="none" xmlns="http://www.w3.org/2000/svg">
<g id="Group">
<path id="Vector" d="M8.04446 0.643626C5.1579 1.65782 2.66141 3.84225 1.25714 6.57278C0.789048 7.50897 0.398972 8.52316 0.242941 9.61538C-0.303165 12.1899 0.0869111 14.9984 1.25714 17.3389C2.03729 18.8992 3.12951 20.2254 4.53378 21.3177C5.78202 22.3319 7.26431 23.112 8.90263 23.5021C10.931 24.0482 13.0374 24.0482 14.9878 23.5801C16.7822 23.19 18.4985 22.3319 19.9028 21.0056C21.3851 19.6793 22.3993 17.963 22.9454 16.0126C23.5695 13.9842 23.6475 11.7998 23.2574 9.69339C19.5127 9.69339 15.768 9.69339 12.0232 9.69339C12.0232 11.2537 12.0232 12.814 12.0232 14.3743C14.2077 14.3743 16.3921 14.3743 18.4985 14.3743C18.2645 15.8566 17.3283 17.2609 16.08 18.041C15.2999 18.5871 14.3637 18.8992 13.4275 19.0552C12.4913 19.2113 11.4771 19.2113 10.541 19.0552C9.60477 18.8992 8.66859 18.4311 7.88843 17.885C6.64019 17.0268 5.62599 15.7006 5.1579 14.2183C4.61179 12.736 4.61179 11.0977 5.1579 9.53736C5.54798 8.52316 6.09408 7.50897 6.87424 6.72881C7.81042 5.71462 9.05866 5.01248 10.4629 4.77843C11.6332 4.54439 12.8034 4.54439 13.9736 4.93446C14.9098 5.24652 15.846 5.79263 16.5481 6.41675C17.2503 5.71462 18.0304 4.93446 18.7326 4.23233C19.1226 3.84225 19.5127 3.45217 19.9028 3.0621C18.8106 2.0479 17.4843 1.18973 16.08 0.643626C13.5055 -0.214542 10.619 -0.214542 8.04446 0.643626Z" fill="var(--fill-0, white)"/>
<g id="Group_2">
<path id="Vector_2" d="M8.04446 0.643618C10.619 -0.214549 13.5055 -0.214549 16.08 0.721634C17.4843 1.26774 18.8106 2.04789 19.9028 3.14011C19.5127 3.53018 19.1226 3.92026 18.7325 4.31033C18.0304 5.01247 17.2503 5.79262 16.5481 6.49476C15.846 5.79262 14.9098 5.24652 13.9736 5.01247C12.8814 4.70041 11.6332 4.6224 10.4629 4.85644C9.13667 5.1685 7.88843 5.87064 6.87423 6.80682C6.09408 7.58697 5.46996 8.60117 5.1579 9.61537C3.83164 8.60117 2.58339 7.58697 1.25713 6.57278C2.66141 3.84224 5.1579 1.65782 8.04446 0.643618Z" fill="var(--fill-0, #EA4335)"/>
</g>
<g id="Group_3">
<path id="Vector_3" d="M0.242941 9.61537C0.476987 8.60118 0.789048 7.58698 1.25714 6.57278C2.5834 7.58698 3.83164 8.60118 5.1579 9.61537C4.6118 11.0977 4.6118 12.736 5.1579 14.2963C3.83164 15.3105 2.5834 16.3247 1.25714 17.3389C0.0869111 14.9204 -0.303165 12.1899 0.242941 9.61537Z" fill="var(--fill-0, #FBBC05)"/>
</g>
<g id="Group_4">
<path id="Vector_4" d="M11.9452 9.6934C15.69 9.6934 19.4347 9.6934 23.1794 9.6934C23.5695 11.7998 23.4915 13.9842 22.8674 16.0126C22.3213 17.885 21.3071 19.6013 19.8248 21.0056C18.5765 19.9914 17.3283 19.0552 16.002 18.041C17.2503 17.1829 18.1084 15.8566 18.4205 14.3743C16.2361 14.3743 14.0516 14.3743 11.9452 14.3743C11.9452 12.814 11.9452 11.2537 11.9452 9.6934Z" fill="var(--fill-0, #4285F4)"/>
</g>
<g id="Group_5">
<path id="Vector_5" d="M1.25713 17.3389C2.58339 16.3247 3.83164 15.3105 5.1579 14.2963C5.62599 15.7786 6.64019 17.1048 7.88843 17.963C8.66858 18.5091 9.60476 18.8992 10.5409 19.1332C11.4771 19.2893 12.4133 19.2893 13.4275 19.1332C14.3637 18.9772 15.2999 18.5871 16.08 18.119C17.3283 19.1332 18.5765 20.0694 19.9028 21.0836C18.4985 22.3319 16.8602 23.19 14.9878 23.6581C12.9594 24.1262 10.853 24.1262 8.90263 23.5801C7.34232 23.19 5.86003 22.4099 4.53377 21.3957C3.20752 20.2254 2.03729 18.8212 1.25713 17.3389Z" fill="var(--fill-0, #34A853)"/>
</g>
</g>
</svg>
