<svg preserveAspectRatio="none" width="100%" height="100%" overflow="visible" style="display: block;" viewBox="0 0 24 22" fill="none" xmlns="http://www.w3.org/2000/svg">
<path id="Vector" d="M4 0.5H20C20.8289 0.5 21.5 1.17114 21.5 2V2.02734L21.5029 2.05566L23.4561 19.6309L23.459 19.6553L23.4639 19.6797C23.4871 19.7896 23.5 19.8954 23.5 20C23.5 20.8289 22.8289 21.5 22 21.5H2C1.17114 21.5 0.5 20.8289 0.5 20C0.5 19.8954 0.512867 19.7896 0.536133 19.6797L0.541016 19.6553L0.543945 19.6309L2.49707 2.05566L2.5 2.02734V2C2.5 1.17114 3.17114 0.5 4 0.5ZM16.5 1.5C15.3959 1.5 14.5 2.39586 14.5 3.5V6C14.5 7.37786 13.3779 8.5 12 8.5C10.6221 8.5 9.5 7.37786 9.5 6V3.5C9.5 2.39586 8.60414 1.5 7.5 1.5C6.39586 1.5 5.5 2.39586 5.5 3.5C5.5 4.24145 5.90601 4.87895 6.5 5.22266V6C6.5 9.03314 8.96686 11.5 12 11.5C15.0331 11.5 17.5 9.03314 17.5 6V5.22266C18.094 4.87895 18.5 4.24145 18.5 3.5C18.5 2.39586 17.6041 1.5 16.5 1.5Z" stroke="var(--stroke-0, #ABB4BD)"/>
</svg>
