<svg preserveAspectRatio="none" width="100%" height="100%" overflow="visible" style="display: block;" viewBox="0 0 25 25" fill="none" xmlns="http://www.w3.org/2000/svg">
<g id="shopping_cart">
<path id="Shape" d="M0.5 2.9H0V3.4H0.5V2.9ZM2.9 2.9L3.35176 2.68573L3.21624 2.4H2.9V2.9ZM7.22 12.008L7.65792 12.2493L7.78148 12.0251L7.67176 11.7937L7.22 12.008ZM5.6 14.948L6.03417 15.1961L6.03792 15.1893L5.6 14.948ZM22.1 18.5V19H22.6V18.5H22.1ZM22.1 16.1H22.6V15.6H22.1V16.1ZM7.904 15.8L7.41893 15.6787L7.404 15.7384V15.8H7.904ZM7.94 15.656L7.50229 15.4143L7.47075 15.4714L7.45493 15.5347L7.94 15.656ZM9.02 13.7V13.2H8.72492L8.58229 13.4583L9.02 13.7ZM20.06 12.464L19.6222 12.2225L19.6216 12.2236L20.06 12.464ZM24.356 4.676L24.7938 4.91751L24.7958 4.91379L24.356 4.676ZM23.3 2.9L23.3012 2.4H23.3V2.9ZM5.552 2.9L5.09949 3.11268L5.23453 3.4H5.552V2.9ZM4.424 0.5L4.87651 0.287319L4.74147 0H4.424V0.5ZM0.5 0.5H0V1H0.5V0.5ZM7.70001 19.7V19.2C6.10061 19.2 4.81201 20.5071 4.81201 22.1H5.31201H5.81201C5.81201 21.0529 6.65941 20.2 7.70001 20.2V19.7ZM5.31201 22.1H4.81201C4.81201 23.6929 6.10061 25 7.70001 25V24.5V24C6.65941 24 5.81201 23.1471 5.81201 22.1H5.31201ZM7.70001 24.5V25C9.29615 25 10.6 23.6961 10.6 22.1H10.1H9.60001C9.60001 23.1439 8.74387 24 7.70001 24V24.5ZM10.1 22.1H10.6C10.6 20.5039 9.29615 19.2 7.70001 19.2V19.7V20.2C8.74387 20.2 9.60001 21.0561 9.60001 22.1H10.1ZM0.5 0.5H0V2.9H0.5H1V0.5H0.5ZM0.5 2.9V3.4H2.9V2.9V2.4H0.5V2.9ZM2.9 2.9L2.44824 3.11427L6.76824 12.2223L7.22 12.008L7.67176 11.7937L3.35176 2.68573L2.9 2.9ZM7.22 12.008L6.78208 11.7667L5.16208 14.7067L5.6 14.948L6.03792 15.1893L7.65792 12.2493L7.22 12.008ZM5.6 14.948L5.16588 14.6999C4.93007 15.1126 4.8 15.5943 4.8 16.1H5.3H5.8C5.8 15.7657 5.88593 15.4554 6.03412 15.1961L5.6 14.948ZM5.3 16.1H4.8C4.8 17.6961 6.10386 19 7.7 19V18.5V18C6.65614 18 5.8 17.1439 5.8 16.1H5.3ZM7.7 18.5V19H22.1V18.5V18H7.7V18.5ZM22.1 18.5H22.6V16.1H22.1H21.6V18.5H22.1ZM22.1 16.1V15.6H8.204V16.1V16.6H22.1V16.1ZM8.204 16.1V15.6C8.31214 15.6 8.404 15.6919 8.404 15.8H7.904H7.404C7.404 16.2441 7.75986 16.6 8.204 16.6V16.1ZM7.904 15.8L8.38907 15.9213L8.42507 15.7773L7.94 15.656L7.45493 15.5347L7.41893 15.6787L7.904 15.8ZM7.94 15.656L8.37771 15.8977L9.45771 13.9417L9.02 13.7L8.58229 13.4583L7.50229 15.4143L7.94 15.656ZM9.02 13.7V14.2H17.96V13.7V13.2H9.02V13.7ZM17.96 13.7V14.2C19.0457 14.2 20.0041 13.6058 20.4984 12.7044L20.06 12.464L19.6216 12.2236C19.2999 12.8102 18.6744 13.2 17.96 13.2V13.7ZM20.06 12.464L20.4978 12.7055L24.7938 4.9175L24.356 4.676L23.9182 4.4345L19.6222 12.2225L20.06 12.464ZM24.356 4.676L24.7958 4.91379C25.0809 4.38649 25.0679 3.74816 24.7615 3.23293L24.3318 3.48847L23.902 3.744C24.0285 3.9568 24.0339 4.22043 23.9162 4.43821L24.356 4.676ZM24.3318 3.48847L24.7615 3.23293C24.4552 2.7177 23.9006 2.40138 23.3012 2.4L23.3 2.9L23.2988 3.4C23.5464 3.40057 23.7755 3.53121 23.902 3.744L24.3318 3.48847ZM23.3 2.9V2.4H5.552V2.9V3.4H23.3V2.9ZM5.552 2.9L6.00451 2.68732L4.87651 0.287319L4.424 0.5L3.97149 0.712681L5.09949 3.11268L5.552 2.9ZM4.424 0.5V0H0.5V0.5V1H4.424V0.5ZM0.5 0.5H1V0.5H0.5H0V0.5H0.5ZM19.7 19.7V19.2C18.1006 19.2 16.812 20.5071 16.812 22.1H17.312H17.812C17.812 21.0529 18.6594 20.2 19.7 20.2V19.7ZM17.312 22.1H16.812C16.812 23.6929 18.1006 25 19.7 25V24.5V24C18.6594 24 17.812 23.1471 17.812 22.1H17.312ZM19.7 24.5V25C21.2962 25 22.6 23.6961 22.6 22.1H22.1H21.6C21.6 23.1439 20.7439 24 19.7 24V24.5ZM22.1 22.1H22.6C22.6 20.5039 21.2962 19.2 19.7 19.2V19.7V20.2C20.7439 20.2 21.6 21.0561 21.6 22.1H22.1Z" fill="var(--stroke-0, #ABB4BD)"/>
</g>
</svg>
