<svg preserveAspectRatio="none" width="100%" height="100%" overflow="visible" style="display: block;" viewBox="0 0 22 25" fill="none" xmlns="http://www.w3.org/2000/svg">
<g id="account_circle">
<path id="Shape" d="M10.6431 24.5L10.6431 24L10.6431 24L10.6431 24.5ZM0.502278 19.0577L0.0023346 19.0502L1.07301e-08 19.205L0.0856135 19.3341L0.502278 19.0577ZM20.784 19.0577L21.2006 19.3341L21.2862 19.205L21.2839 19.0502L20.784 19.0577ZM10.6431 0.5V1C13.1726 1 15.2135 3.04093 15.2135 5.57042H15.7135H16.2135C16.2135 2.48865 13.7249 0 10.6431 0V0.5ZM15.7135 5.57042H15.2135C15.2135 8.09991 13.1726 10.1408 10.6431 10.1408V10.6408V11.1408C13.7249 11.1408 16.2135 8.6522 16.2135 5.57042H15.7135ZM10.6431 10.6408V10.1408C8.11362 10.1408 6.07269 8.09991 6.07269 5.57042H5.57269H5.07269C5.07269 8.6522 7.56133 11.1408 10.6431 11.1408V10.6408ZM5.57269 5.57042H6.07269C6.07269 3.04093 8.11362 1 10.6431 1V0.5V0C7.56133 0 5.07269 2.48865 5.07269 5.57042H5.57269ZM10.6431 24.5L10.6431 24C6.73198 24 3.08093 22.0406 0.918942 18.7813L0.502278 19.0577L0.0856135 19.3341C2.43288 22.8727 6.39681 25 10.6431 25L10.6431 24.5ZM0.502278 19.0577L1.00222 19.0653C1.01219 18.404 1.34717 17.7784 1.97472 17.1902C2.60439 16.6002 3.4945 16.0826 4.51704 15.6549C6.56416 14.7987 9.02125 14.3521 10.6431 14.3521V13.8521V13.3521C8.88472 13.3521 6.29673 13.8266 4.13118 14.7324C3.04738 15.1857 2.03925 15.7593 1.29092 16.4606C0.540483 17.1638 0.0177182 18.0297 0.0023346 19.0502L0.502278 19.0577ZM10.6431 13.8521V14.3521C12.2564 14.3521 14.7135 14.7986 16.763 15.655C17.7867 16.0827 18.6785 16.6004 19.3095 17.1906C19.9385 17.7789 20.2741 18.4045 20.284 19.0653L20.784 19.0577L21.2839 19.0502C21.2685 18.0293 20.7443 17.1633 19.9926 16.4603C19.243 15.7591 18.2333 15.1855 17.1486 14.7323C14.9811 13.8267 12.3932 13.3521 10.6431 13.3521V13.8521ZM20.784 19.0577L20.3673 18.7813C18.2053 22.0406 14.5543 24 10.6431 24L10.6431 24.5L10.6431 25C14.8894 25 18.8534 22.8727 21.2006 19.3341L20.784 19.0577Z" fill="var(--stroke-0, #ABB4BD)"/>
</g>
</svg>
